<?xml version="1.0" standalone="no"?>
<!DOCTYPE svg PUBLIC "-//W3C//DTD SVG 20010904//EN"
 "http://www.w3.org/TR/2001/REC-SVG-20010904/DTD/svg10.dtd">
<svg version="1.0" xmlns="http://www.w3.org/2000/svg"
 width="512.000000pt" height="512.000000pt" viewBox="0 0 512.000000 512.000000"
 preserveAspectRatio="xMidYMid meet">
<metadata>
Created by potrace 1.16, written by Peter Selinger 2001-2019
</metadata>
<g transform="translate(0.000000,512.000000) scale(0.100000,-0.100000)"
fill="#000000" stroke="none">
<path d="M1777 4839 c-42 -24 -47 -57 -47 -291 0 -195 2 -226 18 -250 23 -37
756 -585 793 -593 18 -4 41 -1 60 9 63 31 766 566 777 591 8 17 12 99 12 246
0 233 -6 265 -49 289 -27 14 -1539 13 -1564 -1z m1213 -193 c0 -2 -95 -81
-211 -176 -127 -103 -217 -169 -225 -166 -16 6 -424 335 -424 342 0 2 194 4
430 4 237 0 430 -2 430 -4z"/>
<path d="M1398 4267 l-138 -60 0 -39 c0 -21 20 -331 45 -689 25 -358 45 -673
45 -700 0 -44 -2 -49 -26 -55 -54 -14 -52 -30 -103 725 -27 386 -51 704 -54
708 -15 14 -130 -70 -227 -167 -198 -197 -361 -488 -526 -943 -222 -611 -414
-1557 -414 -2048 0 -130 1 -136 24 -158 26 -24 674 -241 721 -241 52 0 81 44
150 234 99 270 161 450 231 666 53 167 63 190 67 160 3 -19 13 -89 21 -156 21
-165 66 -334 115 -439 l41 -88 0 -159 c0 -179 10 -214 73 -262 40 -31 146 -72
207 -80 47 -7 712 -36 812 -36 l58 0 0 1594 c0 1336 -2 1595 -14 1599 -7 3
-221 161 -475 351 -254 190 -470 346 -479 345 -9 0 -79 -28 -154 -62z"/>
<path d="M3090 3984 c-255 -190 -470 -348 -477 -351 -11 -4 -13 -291 -13
-1603 l0 -1599 33 4 c17 3 169 9 337 15 437 16 522 23 605 55 85 32 129 65
155 115 18 34 20 59 20 199 l0 159 40 84 c48 100 95 277 116 442 8 67 18 137
21 156 4 30 14 8 67 -160 71 -218 134 -401 231 -666 70 -193 98 -234 153 -234
49 1 691 216 718 241 23 21 24 28 24 148 0 458 -160 1297 -365 1914 -189 571
-428 991 -663 1170 -77 58 -132 91 -140 83 -3 -4 -27 -322 -53 -707 -32 -464
-52 -705 -60 -715 -15 -19 -43 -18 -60 2 -11 14 -6 129 35 741 27 398 47 725
45 727 -10 7 -288 126 -296 126 -5 0 -218 -156 -473 -346z"/>
<path d="M11 638 c-6 -54 -11 -112 -11 -128 0 -56 30 -74 272 -160 124 -44
240 -80 257 -80 48 0 80 37 113 131 17 46 32 93 35 104 4 18 -12 26 -159 73
-90 28 -238 76 -329 105 l-167 54 -11 -99z"/>
<path d="M4767 631 c-298 -96 -328 -108 -324 -126 3 -11 18 -58 35 -104 33
-94 65 -131 113 -131 17 0 133 36 257 80 258 92 272 101 271 178 0 26 -6 83
-12 128 l-12 80 -328 -105z"/>
</g>
</svg>
