<?xml version="1.0" standalone="no"?>
<!DOCTYPE svg PUBLIC "-//W3C//DTD SVG 20010904//EN"
 "http://www.w3.org/TR/2001/REC-SVG-20010904/DTD/svg10.dtd">
<svg version="1.0" xmlns="http://www.w3.org/2000/svg"
 width="512.000000pt" height="512.000000pt" viewBox="0 0 512.000000 512.000000"
 preserveAspectRatio="xMidYMid meet">
<metadata>
Created by potrace 1.16, written by Peter Selinger 2001-2019
</metadata>
<g transform="translate(0.000000,512.000000) scale(0.100000,-0.100000)"
fill="#000000" stroke="none">
<path d="M1699 4971 l-29 -29 0 -259 c0 -210 3 -262 15 -279 13 -20 816 -624
829 -624 3 0 6 145 5 323 l0 322 -355 288 c-333 269 -358 287 -396 287 -30 0
-46 -7 -69 -29z"/>
<path d="M1960 4986 c26 -25 595 -486 600 -486 6 0 565 452 595 481 19 19 10
19 -595 19 -535 0 -612 -2 -600 -14z"/>
<path d="M2956 4713 l-355 -288 0 -322 c-1 -178 2 -323 5 -323 13 0 815 604
829 624 12 17 15 68 15 279 l0 259 -29 29 c-23 22 -39 29 -69 29 -38 0 -63
-18 -396 -287z"/>
<path d="M1292 4600 c-214 -30 -278 -42 -294 -57 -12 -10 -132 -244 -268 -520
l-248 -502 -186 -913 c-102 -502 -186 -920 -186 -928 0 -11 92 -39 371 -113
204 -54 373 -96 375 -95 2 2 69 239 148 526 92 329 157 543 175 579 29 56 30
57 31 25 0 -18 -23 -492 -50 -1054 -50 -1007 -51 -1022 -32 -1047 38 -52 22
-51 730 -51 l662 0 0 1618 0 1618 -32 15 c-18 8 -218 153 -445 322 -288 215
-419 319 -435 345 -20 32 -23 53 -27 155 -2 64 -6 116 -10 116 -3 -1 -129 -18
-279 -39z m808 -2879 c8 -16 -20 -89 -157 -401 -140 -318 -171 -382 -190 -387
-25 -6 -53 11 -53 32 0 14 318 743 333 763 15 19 55 14 67 -7z"/>
<path d="M3538 4522 c-3 -94 -7 -124 -23 -151 -14 -24 -151 -133 -440 -349
-231 -173 -432 -319 -447 -324 l-28 -10 0 -1619 0 -1619 663 0 c707 0 691 -1
729 51 19 25 18 40 -32 1047 -27 562 -50 1036 -50 1054 1 32 2 31 31 -24 18
-36 84 -253 175 -580 80 -288 147 -524 149 -526 2 -2 170 41 374 95 280 74
371 102 371 113 0 8 -84 426 -186 929 l-186 914 -248 501 c-136 276 -256 509
-268 519 -16 15 -75 26 -269 52 -136 19 -262 36 -279 39 l-32 4 -4 -116z
m-451 -2794 c15 -19 333 -748 333 -763 0 -21 -28 -38 -53 -31 -19 4 -50 67
-190 386 -136 310 -165 385 -157 401 12 21 52 26 67 7z"/>
<path d="M85 1568 c-15 -48 -85 -417 -85 -451 1 -79 6 -82 306 -158 148 -38
288 -69 311 -69 75 0 85 16 154 268 34 122 60 224 58 226 -4 4 -726 196 -735
196 -3 0 -6 -6 -9 -12z"/>
<path d="M4650 1483 c-195 -53 -357 -97 -359 -99 -2 -2 24 -104 58 -226 70
-252 79 -268 154 -268 23 0 161 31 305 68 301 77 312 83 312 161 -1 77 -84
456 -101 457 -8 1 -174 -41 -369 -93z"/>
<path d="M1247 313 c8 -122 13 -141 44 -168 l31 -25 1238 0 1238 0 31 25 c31
27 36 46 44 168 l4 57 -1317 0 -1317 0 4 -57z"/>
</g>
</svg>
