<?xml version="1.0" standalone="no"?>
<!DOCTYPE svg PUBLIC "-//W3C//DTD SVG 20010904//EN"
 "http://www.w3.org/TR/2001/REC-SVG-20010904/DTD/svg10.dtd">
<svg version="1.0" xmlns="http://www.w3.org/2000/svg"
 width="512.000000pt" height="512.000000pt" viewBox="0 0 512.000000 512.000000"
 preserveAspectRatio="xMidYMid meet">
<metadata>
Created by potrace 1.16, written by Peter Selinger 2001-2019
</metadata>
<g transform="translate(0.000000,512.000000) scale(0.100000,-0.100000)"
fill="#000000" stroke="none">
<path d="M1136 4901 l-420 -116 -219 -395 c-120 -217 -223 -405 -229 -417 -9
-19 24 -69 282 -435 162 -227 295 -415 298 -418 2 -3 30 23 63 58 l59 63 0
-43 c0 -24 -34 -744 -76 -1601 -73 -1495 -76 -1559 -59 -1577 18 -20 36 -20
847 -20 l828 0 0 1973 0 1974 -471 529 c-259 291 -474 532 -478 535 -3 4 -195
-46 -425 -110z m1066 -1238 c24 -22 26 -163 2 -187 -20 -20 -33 -20 -56 1 -25
22 -26 157 -1 185 20 22 31 23 55 1z m6 -575 c7 -7 12 -43 12 -93 0 -85 -8
-105 -45 -105 -12 0 -26 5 -33 12 -15 15 -16 152 -2 179 12 21 50 25 68 7z
m10 -666 c3 -82 -9 -112 -43 -112 -33 0 -45 30 -45 110 0 70 2 81 22 94 19 13
25 14 43 2 17 -11 20 -26 23 -94z m-10 -484 c7 -7 12 -43 12 -93 0 -85 -8
-105 -45 -105 -36 0 -45 20 -45 101 0 57 4 82 16 93 18 19 45 21 62 4z m10
-666 c3 -82 -9 -112 -43 -112 -33 0 -45 30 -45 110 0 70 2 81 22 94 19 13 25
14 43 2 17 -11 20 -26 23 -94z m-17 -482 c16 -9 19 -22 19 -93 0 -87 -8 -107
-45 -107 -36 0 -45 20 -45 101 0 98 20 126 71 99z"/>
<path d="M1691 5003 c28 -36 843 -948 848 -951 5 -2 682 723 854 914 l49 54
-882 0 c-836 0 -882 -1 -869 -17z"/>
<path d="M3087 4502 l-477 -514 0 -1994 0 -1994 828 0 c811 0 829 0 847 20 17
18 14 82 -59 1577 -42 857 -76 1577 -76 1601 l0 43 59 -63 c33 -35 61 -61 63
-58 3 3 137 191 298 419 l293 413 -36 67 c-20 36 -123 223 -229 416 l-194 350
-334 93 c-184 50 -374 103 -421 116 l-86 23 -476 -515z"/>
<path d="M102 3673 c-57 -103 -101 -194 -99 -203 6 -23 498 -712 506 -708 22
11 272 282 269 293 -3 16 -560 804 -568 804 -3 1 -51 -83 -108 -186z"/>
<path d="M4625 3464 c-154 -218 -281 -402 -283 -409 -2 -10 248 -283 269 -293
8 -4 500 685 506 708 4 15 -195 391 -207 390 -3 -1 -131 -179 -285 -396z"/>
</g>
</svg>
