<?xml version="1.0" standalone="no"?>
<!DOCTYPE svg PUBLIC "-//W3C//DTD SVG 20010904//EN"
 "http://www.w3.org/TR/2001/REC-SVG-20010904/DTD/svg10.dtd">
<svg version="1.0" xmlns="http://www.w3.org/2000/svg"
 width="512.000000pt" height="512.000000pt" viewBox="0 0 512.000000 512.000000"
 preserveAspectRatio="xMidYMid meet">
<metadata>
Created by potrace 1.16, written by Peter Selinger 2001-2019
</metadata>
<g transform="translate(0.000000,512.000000) scale(0.100000,-0.100000)"
fill="#000000" stroke="none">
<path d="M872 4533 l-122 -248 -325 -1285 c-179 -706 -322 -1287 -317 -1290
15 -13 486 -130 492 -123 4 4 141 402 305 883 164 481 304 890 311 908 11 28
18 33 40 30 15 -2 32 -12 39 -23 9 -16 -2 -298 -54 -1345 l-66 -1325 692 -3
c381 -1 1005 -1 1386 0 l692 3 -23 485 c-13 267 -26 487 -28 489 -2 2 -28 -13
-58 -33 -110 -73 -222 -107 -355 -107 -181 0 -332 62 -462 191 -135 133 -194
276 -193 465 1 90 6 124 28 191 53 164 179 310 331 385 105 51 180 69 288 69
110 0 203 -21 292 -65 38 -19 71 -35 74 -35 3 0 0 141 -8 314 -16 341 -15 346
36 346 18 0 27 -8 37 -32 7 -18 147 -427 311 -908 164 -481 301 -879 305 -883
6 -7 477 109 492 122 5 4 -138 585 -317 1291 l-325 1285 -122 248 -123 247
-342 0 -343 0 -4 -22 c-3 -13 -8 -45 -11 -73 -4 -27 -20 -90 -36 -140 -167
-505 -754 -745 -1227 -501 -151 78 -273 194 -361 343 -44 75 -96 221 -106 298
-3 28 -8 60 -11 73 l-4 22 -343 0 -343 0 -122 -247z m1403 -1038 c124 -32 231
-123 289 -245 29 -61 31 -72 31 -180 0 -110 -1 -118 -33 -183 -119 -242 -418
-325 -637 -176 -180 121 -244 350 -152 543 91 193 301 293 502 241z m-240
-1696 c63 -30 134 -100 165 -163 51 -106 34 -248 -41 -343 -68 -86 -200 -142
-298 -128 -232 33 -362 276 -257 483 24 48 92 118 137 143 85 45 208 49 294 8z"/>
<path d="M2092 3410 c-102 -22 -193 -96 -240 -199 -22 -47 -27 -70 -26 -141 0
-72 4 -94 27 -142 35 -71 91 -129 159 -165 48 -25 63 -28 153 -28 118 0 171
20 245 95 74 73 95 127 95 240 0 113 -19 163 -89 238 -79 84 -211 126 -324
102z"/>
<path d="M1822 1726 c-100 -33 -162 -121 -162 -230 0 -76 24 -129 77 -177 53
-48 99 -62 183 -57 84 4 138 38 185 113 26 42 30 58 30 119 -1 77 -16 118 -64
169 -58 64 -164 90 -249 63z"/>
<path d="M1780 4752 c0 -89 44 -226 108 -337 43 -74 188 -218 265 -264 141
-83 276 -116 442 -108 136 6 203 24 323 84 158 78 298 229 367 392 29 70 55
176 55 229 l0 32 -780 0 -780 0 0 -28z"/>
<path d="M3338 2744 c-147 -35 -282 -140 -352 -274 -50 -96 -68 -166 -67 -274
1 -471 539 -725 914 -431 45 36 57 51 57 73 0 15 -9 197 -19 405 -22 432 -9
386 -132 451 -118 63 -271 82 -401 50z"/>
<path d="M35 1460 c-21 -88 -36 -162 -33 -166 8 -7 425 -113 448 -114 10 0 30
45 65 148 28 81 50 151 50 156 0 7 -199 62 -466 129 -25 6 -25 6 -64 -153z"/>
<path d="M4835 1565 c-110 -29 -219 -58 -242 -64 l-41 -11 51 -155 c37 -110
56 -155 67 -155 23 1 440 107 448 114 7 7 -69 326 -78 325 -3 0 -95 -25 -205
-54z"/>
<path d="M1270 604 c0 -4 21 -65 48 -135 l47 -129 1195 0 1195 0 48 129 c26
70 47 131 47 135 0 3 -580 6 -1290 6 -710 0 -1290 -3 -1290 -6z"/>
</g>
</svg>
