<?xml version="1.0" standalone="no"?>
<!DOCTYPE svg PUBLIC "-//W3C//DTD SVG 20010904//EN"
 "http://www.w3.org/TR/2001/REC-SVG-20010904/DTD/svg10.dtd">
<svg version="1.0" xmlns="http://www.w3.org/2000/svg"
 width="512.000000pt" height="512.000000pt" viewBox="0 0 512.000000 512.000000"
 preserveAspectRatio="xMidYMid meet">
<metadata>
Created by potrace 1.16, written by Peter Selinger 2001-2019
</metadata>
<g transform="translate(0.000000,512.000000) scale(0.100000,-0.100000)"
fill="#000000" stroke="none">
<path d="M1700 5104 c-45 -19 -106 -79 -131 -126 -24 -46 -142 -529 -132 -538
15 -12 516 -101 523 -93 9 10 49 344 57 473 3 58 1 111 -6 136 -15 57 -64 120
-110 144 -49 24 -149 27 -201 4z"/>
<path d="M3218 5100 c-20 -11 -50 -36 -66 -56 -44 -53 -56 -107 -49 -227 6
-124 47 -459 57 -470 7 -8 508 81 522 92 10 9 -109 495 -131 539 -25 49 -87
107 -133 127 -53 21 -154 19 -200 -5z"/>
<path d="M1384 4293 c-115 -268 -180 -559 -171 -758 6 -131 17 -165 89 -271
93 -137 161 -342 194 -583 16 -126 18 -359 3 -468 -26 -190 -89 -356 -172
-449 -204 -230 -245 -369 -140 -485 48 -53 84 -73 222 -124 157 -58 190 -75
286 -150 122 -96 198 -169 269 -256 109 -137 146 -225 146 -351 0 -91 16 -162
53 -231 35 -67 71 -100 147 -136 53 -25 61 -26 250 -26 189 0 197 1 251 26
130 61 199 189 199 373 0 110 31 190 116 306 68 93 154 180 267 271 112 91
152 112 308 169 137 51 184 76 231 128 106 117 66 256 -139 486 -85 95 -147
262 -174 461 -15 113 -6 419 14 530 41 220 100 381 183 505 29 44 60 101 69
127 38 111 28 313 -25 531 -39 160 -129 412 -146 412 -3 0 -126 -23 -272 -51
-300 -57 -273 -45 -452 -190 -119 -96 -274 -258 -319 -333 -19 -31 -48 -96
-65 -144 -20 -55 -37 -87 -46 -87 -9 0 -26 31 -45 86 -34 93 -57 136 -121 219
-74 98 -261 266 -419 378 -22 16 -99 34 -296 72 -146 27 -269 50 -272 50 -4 0
-14 -17 -23 -37z"/>
</g>
</svg>
