<?xml version="1.0" standalone="no"?>
<!DOCTYPE svg PUBLIC "-//W3C//DTD SVG 20010904//EN"
 "http://www.w3.org/TR/2001/REC-SVG-20010904/DTD/svg10.dtd">
<svg version="1.0" xmlns="http://www.w3.org/2000/svg"
 width="512.000000pt" height="512.000000pt" viewBox="0 0 512.000000 512.000000"
 preserveAspectRatio="xMidYMid meet">
<metadata>
Created by potrace 1.16, written by Peter Selinger 2001-2019
</metadata>
<g transform="translate(0.000000,512.000000) scale(0.100000,-0.100000)"
fill="#000000" stroke="none">
<path d="M1586 5089 c-26 -30 -26 -33 -26 -195 l0 -164 -55 0 c-92 0 -131 -33
-128 -108 1 -20 27 -200 57 -398 l56 -361 140 -413 c77 -227 140 -415 140
-417 0 -1 356 -3 790 -3 435 0 790 1 790 3 0 2 63 189 140 417 l141 413 55
361 c30 199 56 378 57 398 3 75 -36 108 -128 108 l-55 0 0 164 c0 162 0 165
-26 195 -22 27 -32 31 -72 31 -91 -1 -102 -26 -102 -229 l0 -161 -65 0 c-85 0
-95 -10 -165 -168 l-55 -122 -254 -278 c-140 -152 -257 -277 -260 -277 -4 0
-122 125 -261 277 l-255 277 -55 123 c-70 158 -80 168 -165 168 l-65 0 0 161
c0 203 -11 228 -102 229 -40 0 -50 -4 -72 -31z"/>
<path d="M1687 2843 c-36 -60 -327 -553 -648 -1098 -439 -744 -584 -1000 -587
-1029 -7 -68 5 -79 237 -195 608 -306 1090 -461 1585 -511 173 -18 574 -8 736
19 354 57 677 155 1060 321 201 87 554 265 579 292 14 15 21 35 21 63 0 36
-76 169 -648 1140 l-649 1100 -811 3 -811 2 -64 -107z m-466 -2017 c357 -158
667 -253 989 -303 161 -25 539 -25 700 0 324 50 630 144 993 305 159 70 179
72 185 19 3 -25 -3 -30 -75 -63 -974 -449 -1719 -482 -2634 -115 -239 95 -344
147 -347 170 -4 24 14 51 33 51 6 0 77 -29 156 -64z"/>
</g>
</svg>
